# This file uses centimeters as units for non-parametric coordinates.

g default
v 6.039734 0.000000 -58.973022
v 10.334137 0.000000 -79.117188
v 48.880081 0.000000 -20.649963
v 65.921616 0.000000 -30.469482
v 42.532959 0.000000 -29.834106
v 61.088036 0.000000 -38.769775
v 48.880081 0.000000 7.740540
v 65.921616 0.000000 17.560059
v 42.504364 0.000000 16.984070
v 61.187752 0.000000 25.653320
v 17.113266 0.000000 -58.223938
v 20.061264 0.000000 -77.669922
v 39.309860 0.000000 -40.522766
v 57.612289 0.000000 -47.723999
v -49.314407 0.000000 30.152832
v -60.407791 0.000000 46.393921
v -39.610916 0.000000 35.673462
v -52.451553 0.000000 51.775024
v -61.632584 0.000000 4.573853
v -81.247025 0.000000 3.120789
v -59.898880 0.000000 -6.454712
v -80.493484 0.000000 -6.454712
v -4.390762 0.000000 50.222656
v 1.390549 0.000000 69.021973
v 5.975449 0.000000 46.078308
v 10.558197 0.000000 66.156616
v -32.069473 0.000000 43.905212
v -45.434952 0.000000 58.334412
v -32.069534 0.000000 -56.814575
v -45.434891 0.000000 -71.243774
v -39.610977 0.000000 -48.582886
v -52.451492 0.000000 -64.684448
v -4.390823 0.000000 -63.132080
v 1.390427 0.000000 -81.931396
v -61.632645 0.000000 -17.483215
v -81.247025 0.000000 -16.030151
v -49.314468 0.000000 -43.062195
v -60.407791 0.000000 -59.303345
v 61.088028 0.000000 -38.769775
v 39.309860 0.000000 27.613281
v 57.612320 0.000000 34.814575
v 17.113266 0.000000 45.314453
v 20.061295 0.000000 64.760498
v 48.880081 0.000000 -20.650024
v 65.921646 0.000000 -30.469482
v 48.880081 0.000000 7.740479
v 65.921646 0.000000 17.560059
vt 1.000000 0.981436
vt 1.000000 0.907307
vt 0.957569 0.903898
vt 0.965526 0.981142
vt 1.000000 0.981436
vt 0.965526 0.981142
vt 0.957569 0.903898
vt 1.000000 0.907307
vt 1.000000 0.981436
vt 1.000000 0.907307
vt 0.957569 0.903898
vt 0.965526 0.981142
vt 1.000000 0.981436
vt 0.965526 0.981142
vt 0.957569 0.903898
vt 1.000000 0.907307
vt 1.000000 0.981436
vt 1.000000 0.907307
vt 0.957569 0.903898
vt 0.965526 0.981142
vt 1.000000 0.981436
vt 0.965526 0.981142
vt 0.957569 0.903898
vt 1.000000 0.907307
vt 1.000000 0.981436
vt 1.000000 0.907307
vt 0.957569 0.903898
vt 0.965526 0.981142
vt 1.000000 0.981436
vt 0.965526 0.981142
vt 0.957569 0.903898
vt 1.000000 0.907307
vt 1.000000 0.981436
vt 1.000000 0.907307
vt 0.957569 0.903898
vt 0.965526 0.981142
vt 1.000000 0.981436
vt 0.965526 0.981142
vt 0.957569 0.903898
vt 1.000000 0.907307
vt 1.000000 0.981436
vt 1.000000 0.907307
vt 0.957569 0.903898
vt 0.965526 0.981142
vt 1.000000 0.981436
vt 0.965526 0.981142
vt 0.957569 0.903898
vt 1.000000 0.907307
vt 1.000000 0.981436
vt 1.000000 0.907307
vt 0.957569 0.903898
vt 0.965526 0.981142
vt 1.000000 0.981436
vt 0.965526 0.981142
vt 0.957569 0.903898
vt 1.000000 0.907307
vt 1.000000 0.981436
vt 1.000000 0.907307
vt 0.957569 0.903898
vt 0.965526 0.981142
vt 1.000000 0.981436
vt 0.965526 0.981142
vt 0.957569 0.903898
vt 1.000000 0.907307
vn 0.000000 -1.000000 0.000000
vn 0.000000 -1.000000 0.000000
vn 0.000000 -1.000000 0.000000
vn 0.000000 -1.000000 0.000000
vn 0.000000 -1.000000 0.000000
vn 0.000000 -1.000000 0.000000
vn 0.000000 -1.000000 0.000000
vn 0.000000 -1.000000 0.000000
vn 0.000000 -1.000000 0.000000
vn 0.000000 -1.000000 0.000000
vn 0.000000 -1.000000 0.000000
vn 0.000000 -1.000000 0.000000
vn 0.000000 -1.000000 0.000000
vn 0.000000 -1.000000 0.000000
vn 0.000000 -1.000000 0.000000
vn 0.000000 -1.000000 0.000000
vn 0.000000 -1.000000 0.000000
vn 0.000000 -1.000000 0.000000
vn 0.000000 -1.000000 0.000000
vn 0.000000 -1.000000 0.000000
vn 0.000000 -1.000000 0.000000
vn 0.000000 -1.000000 0.000000
vn 0.000000 -1.000000 0.000000
vn 0.000000 -1.000000 0.000000
vn 0.000000 -1.000000 0.000000
vn 0.000000 -1.000000 0.000000
vn 0.000000 -1.000000 0.000000
vn 0.000000 -1.000000 0.000000
vn 0.000000 -1.000000 0.000000
vn 0.000000 -1.000000 0.000000
vn 0.000000 -1.000000 0.000000
vn 0.000000 -1.000000 0.000000
vn 0.000000 -1.000000 0.000000
vn 0.000000 -1.000000 0.000000
vn 0.000000 -1.000000 0.000000
vn 0.000000 -1.000000 0.000000
vn 0.000000 -1.000000 0.000000
vn 0.000000 -1.000000 0.000000
vn 0.000000 -1.000000 0.000000
vn 0.000000 -1.000000 0.000000
vn 0.000000 -1.000000 0.000000
vn 0.000000 -1.000000 0.000000
vn 0.000000 -1.000000 0.000000
vn 0.000000 -1.000000 0.000000
vn 0.000000 -1.000000 0.000000
vn 0.000000 -1.000000 0.000000
vn 0.000000 -1.000000 0.000000
vn 0.000000 -1.000000 0.000000
vn 0.000000 -1.000000 0.000000
vn 0.000000 -1.000000 0.000000
vn 0.000000 -1.000000 0.000000
vn 0.000000 -1.000000 0.000000
vn 0.000000 -1.000000 0.000000
vn 0.000000 -1.000000 0.000000
vn 0.000000 -1.000000 0.000000
vn 0.000000 -1.000000 0.000000
vn 0.000000 -1.000000 0.000000
vn 0.000000 -1.000000 0.000000
vn 0.000000 -1.000000 0.000000
vn 0.000000 -1.000000 0.000000
vn 0.000000 -1.000000 0.000000
vn 0.000000 -1.000000 0.000000
vn 0.000000 -1.000000 0.000000
vn 0.000000 -1.000000 0.000000
s off
g cloudsTwo group20
f 4/1/1 3/2/2 5/3/3 6/4/4
f 8/5/5 10/6/6 9/7/7 7/8/8
f 12/9/9 11/10/10 1/11/11 2/12/12
f 14/13/13 6/14/14 5/15/15 13/16/16
f 16/17/17 15/18/18 17/19/19 18/20/20
f 20/21/21 22/22/22 21/23/23 19/24/24
f 24/25/25 23/26/26 25/27/27 26/28/28
f 28/29/29 18/30/30 17/31/31 27/32/32
f 30/33/33 29/34/34 31/35/35 32/36/36
f 34/37/37 2/38/38 1/39/39 33/40/40
f 36/41/41 35/42/42 21/43/43 22/44/44
f 38/45/45 32/46/46 31/47/47 37/48/48
f 41/49/49 40/50/50 9/51/51 10/52/52
f 43/53/53 26/54/54 25/55/55 42/56/56
f 45/57/57 44/58/58 5/59/59 39/60/60
f 47/61/61 10/62/62 9/63/63 46/64/64
