# This file uses centimeters as units for non-parametric coordinates.

g default
v 54.343933 0.000000 44.518738
v 71.380310 0.000000 60.656006
v 60.118835 0.000000 74.555420
v 45.870499 0.000000 56.688599
v 66.875259 0.000000 31.971375
v 87.758484 0.000000 41.981934
v 32.120270 0.000000 -62.241516
v 44.062042 0.000000 -82.441650
v 60.118866 0.000000 -74.555420
v 45.870575 0.000000 -56.688599
v 17.024231 0.000000 -71.683655
v 22.177521 0.000000 -94.261597
v 54.343964 0.000000 -44.518677
v 71.380341 0.000000 -60.656006
v 66.908539 0.000000 -31.902222
v 87.773727 0.000000 -41.950378
v 68.938606 0.000000 -14.212585
v 92.177292 0.000000 -17.470703
v 96.022858 0.000000 0.000000
v 73.170357 0.000000 0.000000
v 68.938606 0.000000 14.212585
v 92.177292 0.000000 17.470703
v -45.120514 0.000000 -57.533691
v -59.592255 0.000000 -75.613770
v -28.386139 0.000000 -63.401245
v -36.733612 0.000000 -85.332336
v -20.556671 0.000000 -92.969055
v -15.471527 0.000000 -70.689514
v -0.673615 0.000000 -69.726440
v -2.668243 0.000000 -93.107544
v -54.684814 0.000000 42.428833
v -74.208466 0.000000 55.447144
v -85.253479 0.000000 41.375122
v -64.664078 0.000000 31.459778
v -45.180557 0.000000 57.485840
v -59.619675 0.000000 75.591919
v -67.018005 0.000000 16.818604
v -89.368988 0.000000 23.966064
v -72.864227 0.000000 -0.000061
v -96.022858 0.000000 0.000000
v -67.018005 0.000000 -16.818665
v -89.368988 0.000000 -23.966064
v -85.253448 0.000000 -41.375122
v -64.664078 0.000000 -31.459778
v -54.684814 0.000000 -42.428833
v -74.208466 0.000000 -55.447205
v 60.118835 0.000000 74.555359
v 32.120193 0.000000 62.241516
v 44.061981 0.000000 82.441589
v 17.024231 0.000000 71.683594
v 22.177490 0.000000 94.261597
v -0.673599 0.000000 69.726440
v -2.668350 0.000000 93.107544
v -20.556717 0.000000 92.969055
v -15.471527 0.000000 70.689514
v -28.386139 0.000000 63.401245
v -36.733719 0.000000 85.332275
vt 0.642743 0.878604
vt 0.649399 0.978446
vt 0.726473 0.979103
vt 0.706494 0.883726
vt 0.566499 0.885392
vt 0.543088 0.981330
vt 0.706494 0.883726
vt 0.642743 0.878604
vt 0.649399 0.978446
vt 0.726473 0.979103
vt 0.566499 0.885392
vt 0.543088 0.981330
vt 0.706494 0.883726
vt 0.726473 0.979103
vt 0.649399 0.978446
vt 0.642743 0.878604
vt 0.543088 0.981330
vt 0.566499 0.885392
vt 0.706494 0.883726
vt 0.642743 0.878604
vt 0.649399 0.978446
vt 0.726473 0.979103
vt 0.566499 0.885392
vt 0.543088 0.981330
vt 0.706494 0.883726
vt 0.726473 0.979103
vt 0.649399 0.978446
vt 0.642743 0.878604
vt 0.543088 0.981330
vt 0.566499 0.885392
vt 0.706494 0.883726
vt 0.642743 0.878604
vt 0.649399 0.978446
vt 0.726473 0.979103
vt 0.566499 0.885392
vt 0.543088 0.981330
vt 0.706494 0.883726
vt 0.726473 0.979103
vt 0.649399 0.978446
vt 0.642743 0.878604
vt 0.543088 0.981330
vt 0.566499 0.885392
vt 0.706494 0.883726
vt 0.642743 0.878604
vt 0.649399 0.978446
vt 0.726473 0.979103
vt 0.566499 0.885392
vt 0.543088 0.981330
vt 0.706494 0.883726
vt 0.726473 0.979103
vt 0.649399 0.978446
vt 0.642743 0.878604
vt 0.543088 0.981330
vt 0.566499 0.885392
vt 0.706494 0.883726
vt 0.642743 0.878604
vt 0.649399 0.978446
vt 0.726473 0.979103
vt 0.566499 0.885392
vt 0.543088 0.981330
vt 0.706494 0.883726
vt 0.726473 0.979103
vt 0.649399 0.978446
vt 0.642743 0.878604
vt 0.543088 0.981330
vt 0.566499 0.885392
vt 0.706494 0.883726
vt 0.726473 0.979103
vt 0.649399 0.978446
vt 0.642743 0.878604
vt 0.543088 0.981330
vt 0.566499 0.885392
vt 0.706494 0.883726
vt 0.642743 0.878604
vt 0.649399 0.978446
vt 0.726473 0.979103
vt 0.566499 0.885392
vt 0.543088 0.981330
vt 0.706494 0.883726
vt 0.726473 0.979103
vt 0.649399 0.978446
vt 0.642743 0.878604
vt 0.543088 0.981330
vt 0.566499 0.885392
vn 0.000000 -1.000000 0.000000
vn 0.000000 -1.000000 0.000000
vn 0.000000 -1.000000 0.000000
vn 0.000000 -1.000000 0.000000
vn 0.000000 -1.000000 0.000000
vn 0.000000 -1.000000 0.000000
vn 0.000000 -1.000000 0.000000
vn 0.000000 -1.000000 0.000000
vn 0.000000 -1.000000 0.000000
vn 0.000000 -1.000000 0.000000
vn 0.000000 -1.000000 0.000000
vn 0.000000 -1.000000 0.000000
vn 0.000000 -1.000000 0.000000
vn 0.000000 -1.000000 0.000000
vn 0.000000 -1.000000 0.000000
vn 0.000000 -1.000000 0.000000
vn 0.000000 -1.000000 0.000000
vn 0.000000 -1.000000 0.000000
vn 0.000000 -1.000000 0.000000
vn 0.000000 -1.000000 0.000000
vn 0.000000 -1.000000 0.000000
vn 0.000000 -1.000000 0.000000
vn 0.000000 -1.000000 0.000000
vn 0.000000 -1.000000 0.000000
vn 0.000000 -1.000000 0.000000
vn 0.000000 -1.000000 0.000000
vn 0.000000 -1.000000 0.000000
vn 0.000000 -1.000000 0.000000
vn 0.000000 -1.000000 0.000000
vn 0.000000 -1.000000 0.000000
vn 0.000000 -1.000000 0.000000
vn 0.000000 -1.000000 0.000000
vn 0.000000 -1.000000 0.000000
vn 0.000000 -1.000000 0.000000
vn 0.000000 -1.000000 0.000000
vn 0.000000 -1.000000 0.000000
vn 0.000000 -1.000000 0.000000
vn 0.000000 -1.000000 0.000000
vn 0.000000 -1.000000 0.000000
vn 0.000000 -1.000000 0.000000
vn 0.000000 -1.000000 0.000000
vn 0.000000 -1.000000 0.000000
vn 0.000000 -1.000000 0.000000
vn 0.000000 -1.000000 0.000000
vn 0.000000 -1.000000 0.000000
vn 0.000000 -1.000000 0.000000
vn 0.000000 -1.000000 0.000000
vn 0.000000 -1.000000 0.000000
vn 0.000000 -1.000000 0.000000
vn 0.000000 -1.000000 0.000000
vn 0.000000 -1.000000 0.000000
vn 0.000000 -1.000000 0.000000
vn 0.000000 -1.000000 0.000000
vn 0.000000 -1.000000 0.000000
vn 0.000000 -1.000000 0.000000
vn 0.000000 -1.000000 0.000000
vn 0.000000 -1.000000 0.000000
vn 0.000000 -1.000000 0.000000
vn 0.000000 -1.000000 0.000000
vn 0.000000 -1.000000 0.000000
vn 0.000000 -1.000000 0.000000
vn 0.000000 -1.000000 0.000000
vn 0.000000 -1.000000 0.000000
vn 0.000000 -1.000000 0.000000
vn 0.000000 -1.000000 0.000000
vn 0.000000 -1.000000 0.000000
vn 0.000000 -1.000000 0.000000
vn 0.000000 -1.000000 0.000000
vn 0.000000 -1.000000 0.000000
vn 0.000000 -1.000000 0.000000
vn 0.000000 -1.000000 0.000000
vn 0.000000 -1.000000 0.000000
vn 0.000000 -1.000000 0.000000
vn 0.000000 -1.000000 0.000000
vn 0.000000 -1.000000 0.000000
vn 0.000000 -1.000000 0.000000
vn 0.000000 -1.000000 0.000000
vn 0.000000 -1.000000 0.000000
vn 0.000000 -1.000000 0.000000
vn 0.000000 -1.000000 0.000000
vn 0.000000 -1.000000 0.000000
vn 0.000000 -1.000000 0.000000
vn 0.000000 -1.000000 0.000000
vn 0.000000 -1.000000 0.000000
s 1
g CloudsThree group20
f 4/4/1 1/1/2 2/2/3 3/3/4
f 2/2/3 1/1/2 5/5/5 6/6/6
s 2
f 10/7/7 7/8/8 8/9/9 9/10/10
f 8/9/9 7/8/8 11/11/11 12/12/12
s 3
f 10/13/13 9/14/14 14/15/15 13/16/16
f 14/15/15 16/17/17 15/18/18 13/16/16
s 4
f 20/19/19 17/20/20 18/21/21 19/22/22
f 18/21/21 17/20/20 15/23/23 16/24/24
s 5
f 20/25/25 19/26/26 22/27/27 21/28/28
f 22/27/27 6/29/29 5/30/30 21/28/28
s 6
f 28/31/31 25/32/32 26/33/33 27/34/34
f 26/33/33 25/32/32 23/35/35 24/36/36
s 7
f 28/37/37 27/38/38 30/39/39 29/40/40
f 30/39/39 12/41/41 11/42/42 29/40/40
s 8
f 34/43/43 31/44/44 32/45/45 33/46/46
f 32/45/45 31/44/44 35/47/47 36/48/48
s 9
f 34/49/49 33/50/50 38/51/51 37/52/52
f 38/51/51 40/53/53 39/54/54 37/52/52
s 10
f 44/55/55 41/56/56 42/57/57 43/58/58
f 42/57/57 41/56/56 39/59/59 40/60/60
s 11
f 44/61/61 43/62/62 46/63/63 45/64/64
f 46/63/63 24/65/65 23/66/66 45/64/64
s 12
f 4/67/67 47/68/68 49/69/69 48/70/70
f 49/69/69 51/71/71 50/72/72 48/70/70
s 13
f 55/73/73 52/74/74 53/75/75 54/76/76
f 53/75/75 52/74/74 50/77/77 51/78/78
s 14
f 55/79/79 54/80/80 57/81/81 56/82/82
f 57/81/81 36/83/83 35/84/84 56/82/82
