# This file uses centimeters as units for non-parametric coordinates.

g default
v -3.426339 -4.317884 1.384468
v -0.844115 -4.317884 2.686742
v 1.407657 -4.317884 2.150363
v -3.426339 -0.000001 1.384468
v -0.844115 -0.000001 2.686742
v 1.407657 -0.000001 2.150363
v -3.419681 -0.000001 -0.288416
v 2.088674 -0.000001 -0.008579
v -2.629169 -0.000001 -1.869715
v -0.817889 -0.000001 -2.801891
v 1.222706 -0.000001 -2.347522
v -2.629169 -4.317884 -1.869715
v -0.817889 -4.317884 -2.801891
v 1.222706 -4.317884 -2.347522
v -3.419681 -4.317884 -0.288416
v 2.088674 -4.317884 -0.008579
vt 0.375000 0.000000
vt 0.500000 0.000000
vt 0.625000 0.000000
vt 0.375000 0.250000
vt 0.500000 0.250000
vt 0.625000 0.250000
vt 0.375000 0.500000
vt 0.500000 0.500000
vt 0.625000 0.500000
vt 0.375000 0.750000
vt 0.500000 0.750000
vt 0.625000 0.750000
vt 0.875000 0.000000
vt 0.750000 0.000000
vt 0.875000 0.250000
vt 0.750000 0.250000
vt 0.125000 0.000000
vt 0.250000 0.000000
vt 0.125000 0.250000
vt 0.250000 0.250000
vn -0.450299 0.000000 0.892878
vn -0.156487 0.000000 0.987680
vn -0.156487 0.000000 0.987680
vn -0.450299 0.000000 0.892878
vn 0.231720 0.000000 0.972783
vn 0.231720 0.000000 0.972783
vn -0.457605 0.000000 -0.889156
vn -0.123102 0.000000 -0.992394
vn -0.123102 0.000000 -0.992394
vn -0.457605 0.000000 -0.889156
vn 0.217342 0.000000 -0.976096
vn 0.217342 0.000000 -0.976096
vn 0.999156 0.000000 -0.041085
vn 0.937789 0.000000 -0.347206
vn 0.937789 0.000000 -0.347206
vn 0.999156 0.000000 -0.041085
vn 0.953678 0.000000 0.300829
vn 0.953678 0.000000 0.300829
vn -0.894458 0.000000 -0.447151
vn -0.971282 0.000000 -0.237933
vn -0.971282 0.000000 -0.237933
vn -0.894458 0.000000 -0.447151
vn -0.999992 0.000000 -0.003980
vn -0.999992 0.000000 -0.003980
vn 0.000000 1.000000 0.000000
vn 0.000000 1.000000 0.000000
vn 0.000000 1.000000 0.000000
vn 0.000000 1.000000 0.000000
vn 0.000000 1.000000 0.000000
vn 0.000000 1.000000 0.000000
vn 0.000000 1.000000 0.000000
vn 0.000000 1.000000 0.000000
vn 0.000000 -1.000000 -0.000000
vn 0.000000 -1.000000 -0.000000
vn 0.000000 -1.000000 -0.000000
vn 0.000000 -1.000000 -0.000000
vn 0.000000 -1.000000 0.000000
vn 0.000000 -1.000000 0.000000
vn 0.000000 -1.000000 0.000000
vn 0.000000 -1.000000 0.000000
vn 0.000000 -1.000000 0.000000
vn 0.000000 -1.000000 0.000000
vn 0.000000 -1.000000 0.000000
vn 0.000000 -1.000000 -0.000001
vn 0.000000 -1.000000 -0.000001
vn 0.000000 -1.000000 -0.000001
vn 0.000000 1.000000 0.000000
vn 0.000000 1.000000 0.000000
vn 0.000000 1.000000 0.000000
vn 0.000000 1.000000 0.000000
vn 0.000000 1.000000 0.000000
vn 0.000000 1.000000 0.000000
s 1
g platformEmptyPillarCOLL PlatfprmsAndSpikes
f 1/1/1 2/2/2 5/5/3 4/4/4
f 2/2/2 3/3/5 6/6/6 5/5/3
s 2
f 9/7/7 10/8/8 13/11/9 12/10/10
f 10/8/8 11/9/11 14/12/12 13/11/9
s 3
f 16/14/13 14/13/14 11/15/15 8/16/16
f 3/3/17 16/14/13 8/16/16 6/6/18
s 4
f 12/17/19 15/18/20 7/20/21 9/19/22
f 15/18/20 1/1/23 4/4/24 7/20/21
s off
f 7/20/25 4/4/26 6/6/27 8/16/28
f 9/19/29 7/20/30 8/16/31 11/15/32
f 15/18/33 12/17/34 14/13/35 16/14/36
f 1/1/37 15/18/38 16/14/39 3/3/40
f 2/2/41 1/1/42 3/3/43
f 13/11/44 14/13/45 12/10/46
f 5/5/47 6/6/48 4/4/49
f 10/8/50 9/19/51 11/9/52
