# This file uses centimeters as units for non-parametric coordinates.

g default
v -4.387904 -6.383812 1.782834
v 0.152587 -6.383812 3.802792
v 3.421330 -6.383812 3.231596
v -4.387904 0.000000 1.782834
v 0.152587 0.000000 3.802792
v 3.421330 0.000000 3.231596
v -3.945114 0.000000 -0.413728
v 4.477910 0.000000 0.117443
v -2.497433 0.000000 -2.465690
v -0.093582 0.000000 -3.682749
v 3.149408 0.000000 -3.710728
v -2.497433 -6.383812 -2.465690
v -0.093582 -6.383812 -3.682749
v 3.149408 -6.383812 -3.710729
v -3.945114 -6.383812 -0.413728
v 4.477910 -6.383812 0.117443
vt 0.375000 0.000000
vt 0.500000 0.000000
vt 0.625000 0.000000
vt 0.375000 0.250000
vt 0.500000 0.250000
vt 0.625000 0.250000
vt 0.375000 0.500000
vt 0.500000 0.500000
vt 0.625000 0.500000
vt 0.375000 0.750000
vt 0.500000 0.750000
vt 0.625000 0.750000
vt 0.875000 0.000000
vt 0.750000 0.000000
vt 0.875000 0.250000
vt 0.750000 0.250000
vt 0.125000 0.000000
vt 0.250000 0.000000
vt 0.125000 0.250000
vt 0.250000 0.250000
vn -0.406468 0.000000 0.913665
vn -0.182407 0.000000 0.983223
vn -0.182407 0.000000 0.983223
vn -0.406468 0.000000 0.913665
vn 0.172136 0.000000 0.985073
vn 0.172136 0.000000 0.985073
vn -0.451701 0.000000 -0.892169
vn -0.215313 0.000000 -0.976545
vn -0.215313 0.000000 -0.976545
vn -0.451701 0.000000 -0.892169
vn -0.008627 0.000000 -0.999963
vn -0.008627 0.000000 -0.999963
vn 0.999234 0.000000 -0.039139
vn 0.944729 0.000000 -0.327852
vn 0.944729 0.000000 -0.327852
vn 0.999234 0.000000 -0.039139
vn 0.946980 0.000000 0.321294
vn 0.946980 0.000000 0.321294
vn -0.817111 0.000000 -0.576480
vn -0.913633 0.000000 -0.406540
vn -0.913633 0.000000 -0.406540
vn -0.817111 0.000000 -0.576480
vn -0.980281 0.000000 -0.197608
vn -0.980281 0.000000 -0.197608
vn 0.000000 1.000000 0.000000
vn 0.000000 1.000000 0.000000
vn 0.000000 1.000000 0.000000
vn 0.000000 1.000000 0.000000
vn 0.000000 1.000000 0.000000
vn 0.000000 1.000000 0.000000
vn 0.000000 1.000000 0.000000
vn 0.000000 1.000000 0.000000
vn 0.000000 -1.000000 0.000000
vn 0.000000 -1.000000 0.000000
vn 0.000000 -1.000000 0.000000
vn 0.000000 -1.000000 0.000000
vn 0.000000 -1.000000 -0.000000
vn 0.000000 -1.000000 -0.000000
vn 0.000000 -1.000000 -0.000000
vn 0.000000 -1.000000 -0.000000
vn 0.000000 -1.000000 0.000000
vn 0.000000 -1.000000 0.000000
vn 0.000000 -1.000000 0.000000
vn 0.000000 -1.000000 -0.000001
vn 0.000000 -1.000000 -0.000001
vn 0.000000 -1.000000 -0.000001
vn 0.000000 1.000000 0.000000
vn 0.000000 1.000000 0.000000
vn 0.000000 1.000000 0.000000
vn 0.000000 1.000000 0.000000
vn 0.000000 1.000000 0.000000
vn 0.000000 1.000000 0.000000
s 1
g platformEmptyStoneCOLL PlatfprmsAndSpikes
f 1/1/1 2/2/2 5/5/3 4/4/4
f 2/2/2 3/3/5 6/6/6 5/5/3
s 2
f 9/7/7 10/8/8 13/11/9 12/10/10
f 10/8/8 11/9/11 14/12/12 13/11/9
s 3
f 16/14/13 14/13/14 11/15/15 8/16/16
f 3/3/17 16/14/13 8/16/16 6/6/18
s 4
f 12/17/19 15/18/20 7/20/21 9/19/22
f 15/18/20 1/1/23 4/4/24 7/20/21
s off
f 7/20/25 4/4/26 6/6/27 8/16/28
f 9/19/29 7/20/30 8/16/31 11/15/32
f 15/18/33 12/17/34 14/13/35 16/14/36
f 1/1/37 15/18/38 16/14/39 3/3/40
f 2/2/41 1/1/42 3/3/43
f 13/11/44 14/13/45 12/10/46
f 5/5/47 6/6/48 4/4/49
f 10/8/50 9/19/51 11/9/52
