# This file uses centimeters as units for non-parametric coordinates.

g default
v -1.074577 -3.568505 1.037570
v 0.937644 -3.568505 2.304847
v 2.920467 -3.568505 1.670542
v -1.074577 -0.000000 1.037570
v 0.937644 -0.000000 2.304847
v 2.920467 -0.000000 1.670542
v -1.069075 -0.000000 -0.344981
v 3.483292 -0.000000 -0.113711
v -0.415758 -0.000000 -1.651843
v 1.178268 -0.000000 -2.468770
v 2.767615 -0.000000 -2.046725
v -0.415758 -3.568505 -1.651843
v 1.178268 -3.568505 -2.468770
v 2.767615 -3.568505 -2.046725
v -1.069075 -3.568505 -0.344981
v 3.483292 -3.568505 -0.113711
vt 0.375000 0.000000
vt 0.500000 0.000000
vt 0.625000 0.000000
vt 0.375000 0.250000
vt 0.500000 0.250000
vt 0.625000 0.250000
vt 0.375000 0.500000
vt 0.500000 0.500000
vt 0.625000 0.500000
vt 0.375000 0.750000
vt 0.500000 0.750000
vt 0.625000 0.750000
vt 0.875000 0.000000
vt 0.750000 0.000000
vt 0.875000 0.250000
vt 0.750000 0.250000
vt 0.125000 0.000000
vt 0.250000 0.000000
vt 0.125000 0.250000
vt 0.250000 0.250000
vn -0.532911 0.000000 0.846172
vn -0.156487 0.000000 0.987680
vn -0.156487 0.000000 0.987680
vn -0.532911 0.000000 0.846172
vn 0.304689 0.000000 0.952452
vn 0.304689 0.000000 0.952452
vn -0.456086 0.000000 -0.889936
vn -0.123102 0.000000 -0.992394
vn -0.123102 0.000000 -0.992394
vn -0.456086 0.000000 -0.889936
vn 0.256651 0.000000 -0.966504
vn 0.256651 0.000000 -0.966504
vn 0.999156 0.000000 -0.041085
vn 0.937789 0.000000 -0.347206
vn 0.937789 0.000000 -0.347206
vn 0.999156 0.000000 -0.041085
vn 0.953678 0.000000 0.300829
vn 0.953678 0.000000 0.300829
vn -0.894458 0.000000 -0.447151
vn -0.971282 0.000000 -0.237933
vn -0.971282 0.000000 -0.237933
vn -0.894458 0.000000 -0.447151
vn -0.999992 0.000000 -0.003980
vn -0.999992 0.000000 -0.003980
vn 0.000000 1.000000 0.000000
vn 0.000000 1.000000 0.000000
vn 0.000000 1.000000 0.000000
vn 0.000000 1.000000 0.000000
vn 0.000000 1.000000 0.000000
vn 0.000000 1.000000 0.000000
vn 0.000000 1.000000 0.000000
vn 0.000000 1.000000 0.000000
vn 0.000000 -1.000000 0.000000
vn 0.000000 -1.000000 0.000000
vn 0.000000 -1.000000 0.000000
vn 0.000000 -1.000000 0.000000
vn 0.000000 -1.000000 0.000000
vn 0.000000 -1.000000 0.000000
vn 0.000000 -1.000000 0.000000
vn 0.000000 -1.000000 0.000000
vn 0.000000 -1.000000 -0.000001
vn 0.000000 -1.000000 -0.000001
vn 0.000000 -1.000000 -0.000001
vn 0.000000 -1.000000 0.000000
vn 0.000000 -1.000000 0.000000
vn 0.000000 -1.000000 0.000000
vn 0.000000 1.000000 0.000000
vn 0.000000 1.000000 0.000000
vn 0.000000 1.000000 0.000000
vn 0.000000 1.000000 -0.000000
vn 0.000000 1.000000 -0.000000
vn 0.000000 1.000000 -0.000000
s 1
g platformEmptyFlowerCOLL PlatfprmsAndSpikes
f 1/1/1 2/2/2 5/5/3 4/4/4
f 2/2/2 3/3/5 6/6/6 5/5/3
s 2
f 9/7/7 10/8/8 13/11/9 12/10/10
f 10/8/8 11/9/11 14/12/12 13/11/9
s 3
f 16/14/13 14/13/14 11/15/15 8/16/16
f 3/3/17 16/14/13 8/16/16 6/6/18
s 4
f 12/17/19 15/18/20 7/20/21 9/19/22
f 15/18/20 1/1/23 4/4/24 7/20/21
s off
f 7/20/25 4/4/26 6/6/27 8/16/28
f 9/19/29 7/20/30 8/16/31 11/15/32
f 15/18/33 12/17/34 14/13/35 16/14/36
f 1/1/37 15/18/38 16/14/39 3/3/40
f 2/2/41 1/1/42 3/3/43
f 13/11/44 14/13/45 12/10/46
f 5/5/47 6/6/48 4/4/49
f 10/8/50 9/19/51 11/9/52
