# This file uses centimeters as units for non-parametric coordinates.

g default
v -1.045485 -0.500000 2.203075
v 10.495910 -0.500000 2.203075
v -1.045485 0.500000 2.203075
v 10.495910 0.500000 2.203075
v 0.844419 0.500000 -1.650100
v 10.495910 0.500000 -1.650100
v 0.844419 -0.500000 -1.650100
v 10.495910 -0.500000 -1.650100
v -8.460080 0.500000 -5.186325
v -8.460080 -0.500000 -5.186325
v -5.735474 -0.500000 -7.910932
v -5.735474 0.500000 -7.910932
vt 0.374792 0.000436
vt 0.625000 0.000000
vt 0.374052 0.251958
vt 0.625000 0.250000
vt 0.381479 0.500270
vt 0.625000 0.500000
vt 0.380979 0.750025
vt 0.625000 0.750000
vt 0.364927 0.999999
vt 0.625000 1.000000
vt 0.875000 0.000000
vt 0.875000 0.250000
vt 0.125127 -0.000249
vt 0.124764 0.250477
vt 0.348311 0.000012
vt 0.625000 0.000000
vt 0.625000 0.250000
vt 0.336117 0.315040
vt 0.625000 0.500000
vt 0.356768 0.514460
vt 0.625000 0.750000
vt 0.355765 0.730750
vt 0.625000 1.000000
vt 0.330768 0.931666
vt 0.875000 0.000000
vt 0.875000 0.250000
vn -0.000000 0.000000 1.000000
vn -0.000000 0.000000 1.000000
vn -0.000000 0.000000 1.000000
vn -0.000000 0.000000 1.000000
vn 0.000000 1.000000 0.000000
vn 0.000000 1.000000 0.000000
vn 0.000000 1.000000 0.000000
vn 0.000000 1.000000 0.000000
vn 0.000000 0.000000 -1.000000
vn 0.000000 0.000000 -1.000000
vn 0.000000 0.000000 -1.000000
vn 0.000000 0.000000 -1.000000
vn 0.000000 -1.000000 0.000000
vn 0.000000 -1.000000 0.000000
vn 0.000000 -1.000000 0.000000
vn 0.000000 -1.000000 0.000000
vn 1.000000 0.000000 0.000000
vn 1.000000 0.000000 0.000000
vn 1.000000 0.000000 0.000000
vn 1.000000 0.000000 0.000000
vn -0.897820 0.000000 -0.440363
vn -0.897820 0.000000 -0.440363
vn -0.897820 0.000000 -0.440363
vn -0.897820 0.000000 -0.440363
vn -0.705902 0.000000 0.708309
vn -0.705902 0.000000 0.708309
vn -0.705902 0.000000 0.708309
vn -0.705902 0.000000 0.708309
vn 0.000000 -1.000000 0.000000
vn 0.000000 -1.000000 0.000000
vn 0.000000 -1.000000 0.000000
vn 0.000000 -1.000000 0.000000
vn 0.689324 0.000000 -0.724453
vn 0.689324 0.000000 -0.724453
vn 0.689324 0.000000 -0.724453
vn 0.689324 0.000000 -0.724453
vn 0.000000 1.000000 0.000000
vn 0.000000 1.000000 0.000000
vn 0.000000 1.000000 0.000000
vn 0.000000 1.000000 0.000000
vn -0.707107 0.000000 -0.707107
vn -0.707107 0.000000 -0.707107
vn -0.707107 0.000000 -0.707107
vn -0.707107 0.000000 -0.707107
s off
g spikesCurveCOLL PlatfprmsAndSpikes
f 1/1/1 2/2/2 4/4/3 3/3/4
f 3/3/5 4/4/6 6/6/7 5/5/8
f 5/5/9 6/6/10 8/8/11 7/7/12
f 7/7/13 8/8/14 2/10/15 1/9/16
f 2/2/17 8/11/18 6/12/19 4/4/20
f 7/13/21 1/1/22 3/3/23 5/14/24
f 3/15/25 9/16/26 10/17/27 1/18/28
f 1/18/29 10/17/30 11/19/31 7/20/32
f 7/20/33 11/19/34 12/21/35 5/22/36
f 5/22/37 12/21/38 9/23/39 3/24/40
f 9/16/41 12/25/42 11/26/43 10/17/44
